<svg width="77" height="47" viewBox="0 0 77 47" fill="none" xmlns="http://www.w3.org/2000/svg">
<path d="M54.3876 8.8581C54.9087 8.23282 55.3255 7.81598 55.3255 7.60755C55.3255 7.50334 55.4297 7.29491 55.534 7.29491C55.6381 7.29491 56.055 6.77384 56.3676 6.25278C56.6802 5.73171 57.2013 5.10643 57.3055 4.898C57.514 4.68958 57.7224 4.48116 57.8266 4.48116C57.8266 4.48116 58.0351 4.58536 58.2434 4.79379C58.4519 5.00222 58.6603 5.31487 58.6603 5.52328C58.7645 5.73171 58.973 5.94014 59.1813 6.04435C59.3898 6.14856 59.8066 6.35699 60.0151 6.4612C60.3277 6.56542 60.7445 7.08648 61.0572 7.71176C61.4741 8.33703 61.7867 8.75388 61.7867 8.8581C61.7867 8.96231 62.0994 9.37916 62.412 9.79602C62.8288 10.2129 63.0373 10.6297 63.0373 10.8382C63.0373 10.9424 63.3499 11.4634 63.7667 11.8803C64.4962 12.714 64.4962 12.714 64.4962 13.6518C64.4962 14.4856 64.392 14.694 63.9752 15.3193C63.5583 16.0488 63.4541 16.1529 63.5583 17.1951C63.5583 18.0289 63.5583 18.3414 63.3499 18.5499C63.1936 18.6542 62.933 18.5499 62.5162 18.5499C61.9951 18.5499 61.1613 18.6542 60.6404 18.6542C60.1193 18.6542 59.2856 18.7583 58.5561 18.9668C57.9308 19.071 56.576 19.1752 55.4297 19.2793C54.3876 19.3836 52.6159 19.3836 51.4696 19.4878C50.4274 19.4878 49.3854 19.4878 49.2812 19.4878C49.0727 19.4878 48.239 19.4878 47.3011 19.5921C46.1548 19.6963 45.5295 19.5921 45.4252 19.4878C45.321 19.3836 45.321 19.2793 45.5295 19.071C45.7379 18.9668 46.259 18.3415 46.6758 17.8204C47.0927 17.2993 47.6137 16.7782 47.8222 16.674C48.0306 16.5699 48.4474 16.1529 48.6559 15.8404C48.9685 15.4235 49.2812 15.1109 49.3854 15.0067C49.4895 14.9025 49.8022 14.5899 49.9064 14.2772C50.1148 13.9646 50.4274 13.5477 50.5317 13.4435C50.7401 13.3393 51.0527 12.9224 51.3654 12.6098C51.678 12.1929 52.1991 11.6718 52.4076 11.3592C52.7202 11.0466 53.137 10.5255 53.2412 10.4213C53.2412 10.0044 53.8665 9.37916 54.3876 8.8581ZM35.4208 19.1752C35.8377 18.7583 36.2545 18.2372 36.2545 18.0289C36.3587 17.8204 36.5672 17.1951 36.7756 16.9867C36.984 16.5699 37.5051 16.0488 37.8177 15.6319C38.2345 15.215 38.5472 14.7982 38.6514 14.694C38.6514 14.4856 38.9641 14.2772 39.2767 14.1729C39.5894 14.0688 40.1104 13.5477 40.423 13.235C40.8399 12.8182 41.4652 12.0887 41.7778 11.4634C42.1947 10.8381 42.9241 10.0044 43.5494 9.37916C44.3831 8.44124 44.5916 7.92018 44.7999 7.29491C45.0084 6.87806 45.321 6.35699 45.5295 6.04435C45.7379 5.73171 46.1548 5.21064 46.3631 4.79379C46.5716 4.37694 46.8842 3.75167 46.9884 3.43903C47.0927 3.12639 47.4053 2.60532 47.718 2.18847L48.3433 1.45899L49.3854 1.56319C50.0106 1.6674 50.3233 1.77161 50.6359 2.08425C50.8444 2.29268 51.157 2.39689 51.5738 2.39689C51.9906 2.39689 52.4076 2.39689 52.7202 2.60532L53.3455 2.81375L53.2412 3.54324C53.137 3.96009 52.9286 4.58536 52.7202 4.898C52.5117 5.31486 52.1991 5.73171 52.0949 5.83592C51.9906 5.94014 51.5738 6.56542 51.2612 7.08648C50.8444 7.71176 49.9064 8.96231 48.8643 9.90023C47.9263 10.8381 46.7801 12.0887 46.4674 12.5056C46.0505 13.0267 45.6337 13.4435 45.4252 13.7561C45.2169 13.9646 44.5916 14.694 44.0705 15.4235C43.4452 16.1529 42.9241 16.9867 42.6115 17.4036C42.4031 17.8204 41.7778 18.4457 41.4652 18.9668C41.0483 19.4878 40.5273 19.8004 40.3188 19.9047C40.1104 20.0089 39.3809 20.1131 38.6514 20.1131C37.9219 20.1131 36.984 20.2174 36.3587 20.3215C35.6292 20.3215 35.004 20.4257 34.8998 20.3215C34.7955 20.2174 34.5871 20.1131 34.5871 20.0089C34.6913 20.0089 35.004 19.4878 35.4208 19.1752ZM25.5206 22.7185C26.0416 22.7185 26.3542 22.6142 26.4585 22.6142C26.5627 22.6142 26.7712 22.7185 26.9795 22.9268C27.2923 23.2395 27.2923 23.2395 26.9795 23.3436C26.8753 23.3436 26.4585 23.4479 26.2501 23.3436C25.9374 23.3436 25.5206 23.3436 25.4163 23.4479C25.1038 23.5521 24.9995 23.5521 24.7912 23.4479C24.6869 23.3436 24.5827 23.1353 24.5827 23.0311C24.6869 22.8226 24.9995 22.7185 25.5206 22.7185ZM21.5605 23.4479C21.6648 23.3436 21.9774 23.2395 22.1858 23.1353C22.3942 23.1353 22.811 23.0311 22.9152 23.0311C23.1237 22.9268 23.3321 22.9268 23.5405 22.9268C23.6448 22.9268 23.9574 23.0311 24.0616 23.1353C24.2701 23.3436 24.2701 23.4479 24.0616 23.5521C23.9574 23.6564 23.4363 23.7606 23.1237 23.8647C22.6027 23.9689 22.2899 23.9689 21.9774 23.8647C21.4563 23.7606 21.4563 23.6564 21.5605 23.4479ZM10.3055 24.1774C10.5139 23.8647 10.8266 23.8647 13.7445 23.8647C16.1414 23.8647 17.0794 23.7606 17.392 23.6564C17.7046 23.5521 18.0173 23.4479 18.2256 23.5521C18.4341 23.6564 18.6426 23.6564 18.7467 23.6564C18.8509 23.6564 19.1635 23.5521 19.5805 23.4479C19.9973 23.3436 20.4141 23.3436 20.5184 23.3436C20.6226 23.3436 20.9352 23.4479 20.9352 23.6564C20.9352 23.8647 20.9352 23.9689 20.5184 23.9689C20.2057 23.9689 19.8931 24.0732 19.7888 24.1774C19.6846 24.2817 19.372 24.49 19.0594 24.49C18.7467 24.49 18.0173 24.6985 17.392 24.8027C16.6624 24.9068 15.933 25.0111 15.6203 25.0111C15.2035 25.0111 14.7867 25.2196 14.6824 25.3238C14.4741 25.5321 13.953 25.7406 13.6403 25.8449C13.2235 25.949 12.3898 26.1575 11.6603 26.2617C10.6181 26.3659 10.5139 26.3659 10.4097 26.0532C10.4097 25.8449 10.3055 25.4279 10.2013 25.2196C10.0971 24.5943 10.2013 24.2817 10.3055 24.1774ZM69.0816 17.091C69.0816 16.8825 69.1858 16.674 69.1858 16.5699C69.1858 16.4657 69.2901 16.0488 69.2901 15.7361C69.2901 15.6319 69.2901 15.3193 68.9773 14.5899C68.6648 13.7561 68.5605 13.7561 68.4563 13.4435C68.352 13.1308 68.4563 13.0267 68.2479 12.1929C68.1437 11.7761 68.1437 11.5676 68.1437 11.3592C67.9352 10.8382 67.6226 10.5255 67.31 10.2129C66.5805 9.37916 66.9973 9.6918 65.7468 8.12862C65.2258 7.50334 65.0173 7.2949 64.6005 6.87806C63.9752 6.25278 63.6626 5.94014 63.3499 5.6275C62.933 5.31486 62.5162 4.79379 61.5783 4.27272C61.1615 3.9601 60.8488 3.75167 60.2234 3.33481C59.494 2.81375 59.1813 2.60532 58.6603 2.39689C58.2434 2.29269 57.8266 2.08427 57.4098 1.87584C57.2013 1.77163 56.576 1.5632 55.7423 1.35477C55.0128 1.25056 54.596 1.14634 53.8665 1.04213C52.5117 0.937916 52.5117 1.04213 51.5738 0.937918C50.6359 0.833706 49.9064 0.625278 49.5938 0.521064C48.7601 0.312639 48.7601 0.208424 48.239 0.104211C47.6137 -1.59116e-06 47.1969 0 46.6758 0C46.259 0 45.8421 -1.59116e-06 45.2169 0.104211C44.4873 0.208424 44.3831 0.312641 43.862 0.312641C43.341 0.416855 43.0284 0.312641 42.4031 0.312641C41.1526 0.208429 41.1526 0.104211 40.3188 0.104211C39.5894 0.104211 39.2767 0.10421 38.6514 0.208423C38.0262 0.312635 38.0262 0.521063 37.6092 0.625276C37.2966 0.625276 37.0883 0.833706 36.7756 0.937918C36.7756 0.937918 36.6713 0.937916 36.6713 1.04213C36.6713 1.14634 36.7756 1.25055 36.8798 1.25055C37.5051 1.6674 39.1724 1.45899 39.1724 1.45899C39.4851 1.45899 40.7356 1.35476 41.5694 1.6674C41.6737 1.77161 41.882 1.87584 41.9862 1.98004C41.9862 2.08425 41.882 2.18848 41.7778 2.39689C41.6737 2.60532 41.6737 2.70953 41.5694 3.2306C41.4652 3.64745 41.3609 3.9601 41.1526 4.16852C41.0483 4.37695 40.9441 4.37694 40.6315 4.79379C40.2146 5.10643 40.0062 5.41907 39.7977 5.6275C39.3809 6.14856 39.4851 6.25278 39.1724 6.66963C38.8598 7.08648 38.5472 7.29491 38.5472 7.29491C38.3388 7.50334 38.1303 7.60754 38.0262 7.92018C37.9219 8.02439 37.9219 8.1286 37.9219 8.33703C37.8177 8.96231 37.8177 9.06652 37.7135 9.17074C37.6092 9.37916 37.5051 9.48338 37.0883 9.90023C37.0883 9.90023 36.7756 10.2129 36.2545 10.7339C35.8377 11.255 35.8377 11.4634 35.3166 12.1929C34.6913 13.0267 34.5871 13.0267 33.9619 13.9646C33.5449 14.5899 33.6492 14.5899 33.1281 15.3193C32.607 16.0488 32.2944 16.5699 32.086 16.7782C31.7734 17.2993 31.7734 17.1951 30.8355 18.2372C30.2102 18.9668 30.0017 19.1752 29.6891 19.5921C28.9596 20.3215 28.7512 20.4257 28.5427 20.4257C28.2302 20.53 28.1259 20.4257 27.6048 20.6342C27.0838 20.7384 27.0838 20.7384 26.7712 20.8425C26.3542 20.9468 26.0416 20.8425 25.5206 20.8425C24.6869 20.7384 24.4784 20.7384 24.1659 20.8425C24.0616 20.8425 23.9574 20.9468 23.8531 20.9468C23.749 20.9468 23.6448 20.9468 23.3321 20.8425C23.0195 20.7384 22.9152 20.7384 22.811 20.7384C22.6027 20.7384 22.4984 20.8425 22.4984 20.8425C22.3942 20.8425 22.0816 20.9468 20.831 21.1553C18.9552 21.3636 19.1635 21.2595 18.2256 21.4679C17.9131 21.5721 17.2877 21.6763 16.4541 21.7806C16.1414 21.7806 15.933 21.7806 15.8288 21.7806C15.3077 21.7806 15.0992 21.6763 14.7867 21.5721C14.4741 21.5721 14.2656 21.5721 13.8488 21.6763C13.3277 21.7804 13.1192 21.7804 12.2855 21.8847C11.5561 21.9889 11.1392 22.0932 11.035 21.8847C11.035 21.8847 11.035 21.7804 11.035 21.6763C11.035 21.3636 11.2434 21.051 11.3476 20.9468C11.4518 20.7384 11.5561 20.4257 11.7645 19.9047C11.9729 19.1752 11.8687 19.071 12.0771 18.5499C12.1813 18.2372 12.2855 18.0289 12.494 17.8204C12.7024 17.612 12.9109 17.612 13.1192 17.4036C13.3277 17.1951 13.3277 16.9867 13.536 16.5699C13.536 16.5699 13.7445 16.0488 14.0571 15.5278C14.2656 15.1109 14.3698 15.215 14.8909 14.4856C15.5162 13.7561 15.5162 13.6518 15.8288 13.3393C16.0373 13.1308 16.2456 12.9224 16.7667 12.4013C17.0794 12.0887 17.392 11.7761 17.8088 11.4634C18.5384 10.7339 18.8509 10.5255 19.1635 10.3171C19.6846 10.0044 19.7888 9.90023 20.4142 9.48338C20.831 9.17074 20.9352 9.06652 21.1437 8.8581C21.5605 8.54546 21.8731 8.33703 22.4984 8.02439C23.5405 7.39911 24.0616 7.1907 24.5827 6.87806C25.208 6.4612 25.4163 6.25278 25.6248 6.04435C25.8332 5.83592 25.8332 5.41907 26.1459 5.21064C26.3542 5.10643 26.5627 5.10644 26.8753 5.00223C27.188 4.89802 27.3964 4.7938 27.8133 4.48116C28.5427 4.06431 28.8555 3.75167 29.168 3.64746C29.8976 3.33482 30.0017 3.43903 30.4187 3.12639C30.627 2.91796 30.8355 2.81375 31.1481 2.60532C31.3566 2.50111 31.5649 2.50111 31.7734 2.39689C32.8155 2.18848 32.7113 2.18847 32.9198 2.08425C33.5449 1.87583 33.8576 1.5632 34.1702 1.35477C34.483 1.14635 34.7955 0.937919 34.6913 0.833707C34.6392 0.729491 34.483 0.937918 33.9619 0.937918C32.9198 0.937918 31.9817 1.35477 31.9817 1.35477C30.4187 1.98005 30.9397 1.6674 29.2723 2.29268C28.3344 2.60532 27.7091 3.02217 26.2501 3.64746C25.3121 4.16852 24.3742 4.48116 23.6448 5.00223C23.0195 5.31487 22.6027 5.6275 22.0816 5.83592C21.7689 6.04435 21.7689 6.04435 21.2478 6.35699C20.831 6.66963 20.4141 6.87806 19.6846 7.29491C18.9552 7.81596 18.8509 7.81596 18.5384 8.02439C18.4341 8.1286 18.0173 8.44126 17.7046 8.64967C17.0794 9.06652 16.8709 9.48338 16.1414 10.0044C14.4741 11.4634 14.6824 11.3592 14.0571 11.9845C13.3277 12.714 13.015 13.0267 12.5982 13.5477C12.0771 14.1729 12.1813 14.2772 11.5561 15.1109C10.7224 16.0488 10.7224 16.1529 10.2013 16.8825C9.99286 17.1951 9.78444 17.5078 9.4718 18.1331C9.05494 18.8625 9.05494 18.9668 8.7423 19.3836C8.42966 19.8004 8.42966 19.8004 8.11704 20.2174C7.8044 20.7384 7.8044 20.8425 7.59597 21.051C7.49176 21.1553 7.17912 21.6763 6.86648 21.8847C6.34541 22.51 5.5117 22.4057 4.78222 22.4057C3.94851 22.4057 2.80217 22.4057 1.23898 22.7185C0.717912 22.8226 0.301059 22.4057 0.0926337 22.6142C-0.115792 22.8226 0.0926337 23.4479 0.0926337 23.4479C0.301059 23.8647 0.613699 24.1774 0.926338 24.2817C2.07269 24.9068 4.05273 24.6985 5.40749 24.49C5.5117 24.49 5.92856 24.3858 6.13698 24.5943C6.2412 24.6985 6.34541 24.8027 6.44962 25.0111C6.65805 25.3238 6.65805 25.6364 6.65805 25.6364C6.65805 25.8449 6.65805 26.0532 6.65805 26.1575C6.65805 26.2617 6.55384 26.47 6.44962 26.6785C6.2412 26.887 6.03277 26.9911 5.82434 26.9911C4.67801 27.3038 4.46958 27.1996 3.94851 27.5122C3.63587 27.7207 3.74009 27.7207 3.11481 28.346C2.59374 28.867 2.2811 28.9711 2.2811 29.1796C2.2811 29.4922 2.69795 29.9092 3.11481 30.0133C3.53166 30.1175 3.63587 30.0133 4.67801 30.0133C5.40749 30.0133 5.30328 30.0133 5.5117 30.0133C6.13698 29.9092 6.34541 29.5964 7.0749 29.1796C7.38754 28.9711 7.70018 28.9711 8.11704 28.7628C8.42966 28.6585 8.95073 28.5543 10.4097 28.346C11.7645 28.1375 12.0771 28.346 12.5982 28.0332C12.8066 27.929 13.3277 27.7207 13.6403 27.7207C14.0571 27.6164 14.7867 27.5122 15.412 27.5122C16.0373 27.4081 17.0794 27.1996 17.8088 27.0953C18.5384 26.887 19.1635 26.887 19.372 26.887C19.5805 26.9911 19.8931 26.887 20.1016 26.7828C20.4141 26.5743 20.831 26.5743 21.6648 26.5743C22.4984 26.5743 22.9152 26.5743 23.0195 26.3659C23.1237 26.2617 23.3321 26.1575 23.4363 26.1575C23.5406 26.1575 23.6448 26.2617 23.6448 26.3659C23.6448 26.47 23.5406 26.6785 23.4363 26.7828C23.3321 26.887 23.0195 27.3038 22.7069 27.6164C22.4984 27.6164 22.0816 28.2417 21.7689 28.6585C21.4563 29.0754 21.1437 29.5964 21.0395 29.9092C20.831 30.2217 20.6226 30.5343 20.3099 30.7428C20.1016 30.9513 19.8931 31.2639 19.7888 31.4724C19.6846 31.6807 19.372 32.0975 19.0594 32.306C18.7467 32.5145 18.4341 33.0356 18.3299 33.2439C18.2256 33.5566 17.9131 34.0777 17.7046 34.1818C17.4962 34.4945 17.0794 34.9113 16.9752 35.0156C16.7667 35.2239 16.3499 35.745 16.0373 36.0577C15.6203 36.3703 15.3077 36.6829 15.2035 36.6829C15.0992 36.6829 14.8909 36.8914 14.7867 37.0999L14.5782 37.5167L13.953 36.8914C13.6403 36.5788 13.3277 36.2661 13.2235 36.2661C13.1192 36.2661 12.9109 35.9535 12.8066 35.6408C12.7024 35.3282 12.494 34.9114 12.3898 34.8071C12.2855 34.7029 12.0771 34.286 11.9729 33.9735C11.8687 33.5566 11.6603 33.2439 11.5561 33.1397C11.4518 33.0356 11.2434 32.7228 11.1392 32.4103C11.035 32.0975 10.7224 31.5765 10.4097 31.3681C10.0971 30.9513 9.88865 30.6386 9.57601 30.6386C9.36758 30.6386 9.05494 30.7428 8.84652 30.9513C8.42966 31.2639 8.42966 31.3681 8.53388 32.306L8.63809 33.3481L9.68022 34.4945C10.3055 35.2239 10.9308 35.9535 11.1392 36.2661C11.3476 36.6829 11.5561 37.0999 11.6603 37.3082C11.7645 37.5167 12.8066 38.6631 12.9109 38.8714C13.015 39.0799 12.9109 39.3925 12.5982 39.7052C12.2855 40.0178 12.1813 40.4346 12.1813 40.7472C12.1813 41.0599 12.2855 41.4767 12.7024 41.8936C13.015 42.3104 13.4319 42.5189 13.536 42.5189C13.7445 42.5189 14.3698 42.3104 14.6824 42.102L15.5162 41.6852L16.8709 42.102C17.7046 42.3104 18.3299 42.6231 18.5384 42.7273C18.7467 42.8315 19.0594 42.9357 19.2678 42.9357C19.4763 42.9357 19.8931 42.8315 20.1016 42.6231C20.4141 42.3104 20.4141 42.3104 20.3099 41.7893C20.2057 41.3725 19.8931 40.9557 19.6846 40.8514C19.4763 40.7472 18.9552 40.4346 18.7467 40.3304C18.4341 40.2261 18.0173 39.9135 17.9131 39.7052C17.7046 39.4967 17.6005 39.0799 17.6005 38.8714C17.6005 38.6631 17.8088 38.2461 17.9131 38.0377C18.1215 37.725 18.4341 37.3082 18.6426 37.204C18.8509 37.0999 19.0594 36.6829 19.0594 36.5788C19.0594 36.4746 19.372 36.0577 19.8931 35.745C20.3099 35.3282 20.831 34.7029 21.0395 34.1818C21.352 33.6607 21.8731 33.1397 22.3942 32.6186C22.9152 32.2018 23.8531 31.3681 24.4784 30.5343C25.208 29.7007 26.0416 28.867 26.4585 28.346C26.8753 27.929 27.5006 27.4081 27.8133 27.3038C28.2302 27.0953 28.5427 26.6785 28.7512 26.3659C28.9596 25.949 29.3765 25.5321 29.5849 25.5321C29.7934 25.4279 30.3144 25.3238 30.627 25.4279C31.0438 25.4279 31.5649 25.5321 31.8776 25.5321C32.1902 25.5321 33.0239 25.5321 33.8576 25.5321C34.6913 25.5321 35.2124 25.5321 35.3166 25.6364C35.3166 25.7406 35.3166 25.949 35.2124 26.1575C35.1081 26.3659 34.7955 26.6785 34.5871 26.9911C34.3787 27.1996 33.6492 27.929 32.9198 28.7628C32.1902 29.5964 31.5649 30.2217 31.5649 30.326C31.5649 30.4302 31.1481 30.8471 30.7312 31.2639C30.2102 31.7849 29.6891 32.4103 29.2723 32.8271C28.8555 33.2439 28.0217 34.1818 27.188 35.1197C26.3542 35.9535 25.7291 36.7871 25.7291 36.8914C25.7291 37.0999 25.5206 37.4124 25.3121 37.725C24.9995 38.0377 24.5827 38.5588 24.3742 38.8714C24.0616 39.1841 23.6448 39.7052 23.5405 40.0178C23.3321 40.3304 22.9152 40.8514 22.7069 41.1642C22.2899 41.4767 21.9774 41.8936 21.9774 41.9978C21.9774 42.2063 21.7168 42.2584 21.5084 42.6231C21.2478 42.9878 21.1667 43.1563 21.0395 43.6652C20.9352 44.0821 20.9352 44.3425 21.1437 44.8116C21.4563 45.1763 21.5605 45.1242 21.9774 45.2806C22.2568 45.3853 22.3421 45.2284 22.6027 45.3327C22.811 45.541 23.228 45.7495 23.4363 45.8538C23.8531 45.9579 24.1659 45.9579 24.2701 45.8538C24.4784 45.7495 24.8953 45.7495 25.3121 45.7495C25.8332 45.8538 26.1459 45.7495 26.5627 45.6453C26.8073 45.5841 26.4064 44.8636 26.9795 44.9157C26.9795 44.9157 27.0838 44.9157 27.188 45.02C27.3964 45.2284 27.5006 45.3327 27.6048 45.4368C28.0217 45.9579 29.168 46.2706 29.168 46.2706C31.3566 47 33.4408 47 33.6492 47C33.9619 47 34.066 47 34.2745 47C34.483 47 34.5871 47 34.6913 47C35.4208 47 36.1503 46.2706 36.1503 46.2706C36.6713 45.8538 36.463 45.8538 36.984 45.4368C37.5051 45.02 37.8177 44.8116 38.6514 44.3947C38.7556 44.2906 38.9641 44.1863 39.2767 44.0821C39.6935 43.8736 39.902 43.7695 40.1105 43.7695C40.6315 43.6652 40.8399 43.561 41.0483 43.561C41.1526 43.561 41.2567 43.561 41.4652 43.4568C41.5694 43.3525 41.5694 43.2484 41.5694 43.1442C41.6737 42.9357 41.882 42.7274 42.1947 42.5189C42.5073 42.2063 42.9241 42.102 43.2369 41.8936C43.6537 41.6852 43.6537 41.7893 44.0705 41.581C44.5916 41.3725 44.9042 41.1642 44.9042 41.1642C45.0084 41.1642 45.1126 41.0599 45.6337 40.7472C46.0505 40.5388 46.3631 40.3304 46.4674 40.2261C47.8222 39.3925 47.718 39.3925 47.9263 39.3925C48.4474 39.1841 48.4474 39.2882 49.0727 38.9756C49.1769 38.9756 49.3854 38.8714 49.9064 38.5588C50.6359 38.2461 50.7401 38.142 51.3654 37.725C52.1991 37.3082 52.5117 37.0999 52.9286 36.8914C53.2412 36.7871 53.4497 36.7871 53.7623 36.5788C53.9708 36.4746 54.1791 36.3703 54.596 36.2661C55.0129 36.0577 55.2213 36.0577 55.4297 35.9535C55.6381 35.8492 56.2634 35.5367 56.8887 35.1197C57.3055 34.8071 57.6181 34.4945 58.3477 33.8692C59.0772 33.1397 59.0772 33.1397 59.2856 32.9313C59.8066 32.5145 60.0151 32.4103 60.4319 31.9934C60.7445 31.5765 60.953 31.2639 60.953 31.1596C61.1613 30.7428 61.1615 30.4302 61.2656 30.326C61.3698 29.8049 61.5783 29.8049 62.5162 28.867C63.2456 28.1375 63.5583 27.8249 63.8709 27.1996C64.2877 26.5743 64.1836 26.5743 64.6005 26.0532C65.0173 25.5321 65.1215 25.4279 65.4341 25.2196C65.6426 24.9068 65.8509 24.8027 65.8509 24.8027C65.9552 24.6985 65.9552 24.5943 66.0594 24.3858C66.8931 23.0311 66.5805 22.1974 67.2058 21.7806C67.5184 21.5721 67.5184 21.7804 68.2479 21.4679C68.4563 21.3636 68.8732 21.2595 69.2901 20.9468C69.8111 20.6342 69.9152 20.4257 70.3322 20.3215C70.5406 20.3215 70.6448 20.3215 70.8533 20.3215C71.0616 20.2174 71.0616 20.2174 71.3743 20.0089C71.6869 19.8004 71.6869 19.9047 71.8954 19.6963C72.208 19.4878 72.208 19.4878 72.3122 19.3836C72.6248 19.2793 72.7291 19.3836 72.9375 19.2793C73.1459 19.1752 73.1459 18.9668 73.3544 18.8625C73.4586 18.7583 73.6669 18.7583 74.0838 18.7583C74.5006 18.7583 74.6048 18.7583 74.7091 18.6542C74.8133 18.5499 74.8133 18.3415 74.9176 18.3415C75.0218 18.3415 75.0217 18.3414 75.2301 18.4457C75.4386 18.5499 75.5427 18.5499 75.647 18.5499C75.7512 18.4457 75.6991 18.3414 75.9074 18.2893C76.0638 18.2893 76.2723 18.2372 76.2723 18.1331C76.2723 18.1331 76.168 18.0289 75.5427 18.0289C75.1259 18.0289 75.0217 18.1331 74.8133 18.1331C74.3965 18.1331 74.2923 18.1331 73.8754 18.1331C73.1459 18.1331 73.1459 18.3415 72.5206 18.3415C72.1037 18.3415 72.1038 18.2372 71.5827 18.1331C71.3743 18.1331 71.0616 18.1331 70.6448 18.2372C70.228 18.3415 70.1237 18.5499 69.6027 18.5499C69.2901 18.6542 69.0816 18.6542 68.9773 18.5499C68.769 18.4457 68.769 18.1331 69.0816 17.091ZM36.984 42.5189C36.5672 42.8315 35.6292 43.2484 34.7955 43.4568C33.4408 43.9778 33.3366 43.9778 32.3987 43.8736C31.7734 43.7695 31.0438 43.6652 30.7312 43.6652C30.3144 43.6652 29.4806 43.561 28.647 43.561C27.3964 43.561 27.2923 43.4568 27.0838 43.1442C26.9795 42.9357 26.3542 42.5189 25.8332 42.3104C25.208 41.9978 24.7912 41.6852 24.7912 41.6852C24.7912 41.581 24.8953 41.4767 24.8953 41.3725C24.9995 41.2683 25.3121 40.9557 25.7291 40.6431C26.1459 40.3304 26.7712 39.7052 27.188 39.1841C27.6048 38.6631 28.1259 38.0377 28.4385 37.725C28.7512 37.4124 28.9596 37.0999 28.9596 36.9956C28.9596 36.8914 29.6891 36.1618 30.5228 35.2239C31.3566 34.3903 32.1902 33.6607 32.2944 33.6607C32.3987 33.6607 32.5028 33.5566 32.5028 33.4524C32.5028 33.3481 32.7113 33.1397 32.9198 33.0356C33.1281 32.9313 33.5449 32.6186 33.7534 32.306C34.066 31.9934 34.2745 31.6807 34.2745 31.6807C34.2745 31.5765 34.483 31.2639 34.6913 30.9513C34.8998 30.6386 35.3166 30.2217 35.5251 30.1175C35.7334 30.0133 35.9419 29.8049 35.9419 29.7007C35.9419 29.5964 36.1503 29.3881 36.3587 29.1796C36.5672 29.0754 37.0883 28.4501 37.2966 28.0332C37.6094 27.5122 38.3388 26.5743 39.0683 25.8449L40.2146 24.5943L42.5073 24.49C43.6537 24.49 45.4252 24.2817 46.259 24.1774C47.0927 24.0732 47.9263 23.8647 48.0306 23.7606C48.1348 23.6564 49.0727 23.5521 50.1148 23.5521C51.0527 23.5521 52.1991 23.4479 52.5117 23.3436C53.137 23.2395 53.3455 23.2395 54.2834 23.5521L55.3255 23.9689L56.1592 23.5521C56.3676 23.4479 56.576 23.3436 56.7845 23.3436C57.8266 23.0311 58.2434 23.4479 59.2856 23.2395C59.8066 23.1353 59.7024 23.0311 60.7445 22.8226C61.8909 22.51 61.9951 22.6142 62.0994 22.7185C62.3077 22.9268 61.9951 23.5521 61.6825 24.1774C61.3698 24.8027 61.2656 25.0111 60.8488 25.5321C60.4319 26.0532 60.1193 26.5743 60.1193 26.887C60.0151 27.3038 59.8066 27.6164 59.2856 27.929C58.8687 28.2417 58.4519 28.7628 58.4519 28.9711C58.3477 29.2839 57.9308 29.8049 57.6181 30.1175C57.2013 30.4302 56.8887 30.8471 56.8887 30.9513C56.8887 31.0554 56.4719 31.3681 56.055 31.6807C55.534 31.9934 55.117 32.306 55.0129 32.4103C54.9087 32.5145 54.596 32.8271 54.2834 33.0356C53.9708 33.2439 53.4497 33.4524 53.3455 33.4524C53.0328 33.4524 52.8244 33.6607 52.6159 34.0777C52.4076 34.3903 52.0949 34.7029 51.8865 34.8071C51.678 34.9114 51.157 35.0156 50.9485 35.0156C50.4274 35.0156 50.2191 35.1197 49.698 35.6408C49.2812 36.0577 48.8643 36.2661 48.8643 36.2661C48.6559 36.2661 48.239 36.5788 47.9263 36.8914C47.5095 37.204 47.0927 37.5167 47.0927 37.5167C46.9884 37.5167 46.5716 37.725 46.0505 37.9335C45.5295 38.142 45.0084 38.4546 44.6958 38.5588C44.3831 38.6631 44.0705 38.7672 43.9663 38.7672C43.7578 38.7672 43.4452 38.9756 43.1326 39.1841C42.8199 39.3925 42.1947 39.9135 41.5694 40.122C40.9441 40.4346 40.2146 40.8514 39.902 40.9557C39.5894 41.0599 39.0683 41.3725 38.7556 41.581C38.3388 41.8936 37.9219 42.102 37.9219 42.102C37.9219 42.102 37.4009 42.2063 36.984 42.5189Z" fill="#020202"/>
</svg>
