<svg class="sad" viewBox="0 0 61 110" fill="none" xmlns="http://www.w3.org/2000/svg">
<path fill-rule="evenodd" clip-rule="evenodd" d="M17.2131 28.2813V28.2813V28.2814C17.2398 32.0795 17.2664 35.8777 17.1341 39.6705C17.0472 42.1604 16.3001 44.9836 13.2901 45.1761C9.59056 45.4127 8.58643 42.4533 8.27822 39.4074C8.14468 38.0868 8.10947 36.7566 8.07426 35.4261V35.426C8.04401 34.2832 8.01376 33.1402 7.92118 32.0028C7.69503 29.2278 7.44257 26.4548 7.1901 23.6818L7.19008 23.6817C6.88309 20.3099 6.57611 16.9381 6.31643 13.5625C6.0486 11.5267 6.0848 9.46244 6.42382 7.43729L6.48677 7.16298C7.19751 4.06043 8.0487 0.344815 12.2385 0.78953C15.7716 1.16515 15.9952 4.6285 16.1509 7.56932C16.3497 11.326 16.535 15.0833 16.7203 18.8407L16.7204 18.842L16.7205 18.8437C16.799 20.4357 16.8775 22.0277 16.957 23.6197L17.1913 23.6169C17.1913 25.1714 17.2022 26.7263 17.2131 28.2813ZM0.0339787 96.5651C0.126155 96.085 0.234817 95.4729 0.360462 94.7651C0.705637 92.8206 1.17898 90.154 1.79075 87.5195C6.41257 67.6097 20.3101 60.5747 38.8504 68.9346C48.3217 73.314 55.7422 81.1734 59.5704 90.8806C60.5509 93.5861 61.0257 96.4488 60.9711 99.326L60.9742 99.432C61.0562 102.216 61.1602 105.75 57.5775 106.403C54.0314 107.051 52.7456 104.091 52.0594 101.088C51.7412 99.058 51.2581 97.0569 50.615 95.1049C49.0214 90.6155 46.361 86.5803 42.8627 83.3466C39.3645 80.1129 35.133 77.7774 30.5323 76.541C20.6983 73.9251 14.5461 77.3973 11.8623 87.2959C10.958 90.6262 10.48 94.0698 10.0017 97.5156C9.74234 99.384 9.4829 101.253 9.15536 103.105C9.12499 103.277 9.09506 103.451 9.0648 103.628C8.59704 106.356 8.05177 109.537 4.64603 109.508C0.39321 109.471 0.224074 105.928 0.0719611 102.742C0.062787 102.549 0.0536747 102.358 0.0437323 102.17C0.00344307 101.396 0.00991152 100.619 0.0202988 99.3727C0.0264513 98.6343 0.0339787 97.7308 0.0339787 96.5651ZM40.0686 21.1886C40.0783 22.6308 40.088 24.0731 40.088 25.515H40.5422C40.5422 26.9725 40.532 28.4303 40.5219 29.8881C40.4978 33.3538 40.4736 36.8194 40.5859 40.2809C40.6807 43.2106 41.3097 46.5368 44.8102 46.8446C48.6566 47.1825 49.1931 43.6797 49.4385 40.8504C49.9914 30.6047 49.7554 20.3316 48.7329 10.122C48.5576 7.50937 47.2518 5.18265 44.1836 5.45182C41.2218 5.71122 40.2177 8.18299 40.1345 10.7579C40.0218 14.2318 40.0452 17.7102 40.0686 21.1886Z"/>
</svg>
