<svg width="60" height="37" viewBox="0 0 60 37" fill="none" xmlns="http://www.w3.org/2000/svg">
<path d="M42.7843 6.96827C43.1942 6.47639 43.5221 6.14848 43.5221 5.98452C43.5221 5.90254 43.6041 5.73858 43.6861 5.73858C43.768 5.73858 44.096 5.32868 44.3419 4.91878C44.5878 4.50888 44.9977 4.017 45.0797 3.85304C45.2437 3.68908 45.4076 3.52513 45.4896 3.52513C45.4896 3.52513 45.6536 3.6071 45.8175 3.77106C45.9815 3.93502 46.1454 4.18097 46.1454 4.34492C46.2274 4.50888 46.3914 4.67284 46.5553 4.75482C46.7193 4.8368 47.0472 5.00076 47.2112 5.08274C47.4571 5.16472 47.785 5.57462 48.031 6.0665C48.3589 6.55837 48.6048 6.88629 48.6048 6.96827C48.6048 7.05025 48.8508 7.37817 49.0967 7.70609C49.4246 8.03401 49.5886 8.36193 49.5886 8.52589C49.5886 8.60787 49.8345 9.01776 50.1624 9.34568C50.7363 10.0015 50.7363 10.0015 50.7363 10.7393C50.7363 11.3952 50.6543 11.5591 50.3264 12.051C49.9985 12.6249 49.9165 12.7068 49.9985 13.5266C49.9985 14.1825 49.9985 14.4284 49.8345 14.5924C49.7116 14.6744 49.5066 14.5924 49.1787 14.5924C48.7688 14.5924 48.1129 14.6744 47.7031 14.6744C47.2932 14.6744 46.6373 14.7563 46.0635 14.9203C45.5716 15.0023 44.5058 15.0843 43.6041 15.1662C42.7843 15.2482 41.3906 15.2482 40.4888 15.3302C39.669 15.3302 38.8493 15.3302 38.7673 15.3302C38.6033 15.3302 37.9475 15.3302 37.2097 15.4122C36.3079 15.4942 35.816 15.4122 35.734 15.3302C35.652 15.2482 35.652 15.1662 35.816 15.0023C35.98 14.9203 36.3899 14.4284 36.7178 14.0185C37.0457 13.6086 37.4556 13.1987 37.6196 13.1167C37.7835 13.0348 38.1114 12.7068 38.2754 12.4609C38.5213 12.133 38.7673 11.8871 38.8493 11.8051C38.9312 11.7231 39.1772 11.4772 39.2591 11.2312C39.4231 10.9853 39.669 10.6574 39.751 10.5754C39.915 10.4934 40.1609 10.1655 40.4069 9.91954C40.6528 9.59162 41.0627 9.18172 41.2267 8.93578C41.4726 8.68985 41.8005 8.27995 41.8825 8.19797C41.8825 7.87005 42.3744 7.37817 42.7843 6.96827ZM27.864 15.0843C28.1919 14.7563 28.5198 14.3464 28.5198 14.1825C28.6018 14.0185 28.7658 13.5266 28.9297 13.3627C29.0937 13.0348 29.5036 12.6249 29.7495 12.2969C30.0774 11.969 30.3234 11.6411 30.4053 11.5591C30.4053 11.3952 30.6513 11.2312 30.8972 11.1492C31.1432 11.0673 31.5531 10.6574 31.799 10.4114C32.1269 10.0835 32.6188 9.50964 32.8647 9.01776C33.1927 8.52588 33.7665 7.87005 34.2584 7.37817C34.9142 6.64035 35.0782 6.23045 35.2421 5.73858C35.4061 5.41066 35.652 5.00076 35.816 4.75482C35.98 4.50888 36.3079 4.09898 36.4718 3.77106C36.6358 3.44314 36.8817 2.95127 36.9637 2.70533C37.0457 2.45939 37.2916 2.04949 37.5376 1.72157L38.0295 1.14772L38.8493 1.22969C39.3411 1.31167 39.5871 1.39365 39.833 1.63959C39.997 1.80355 40.2429 1.88553 40.5708 1.88553C40.8987 1.88553 41.2267 1.88553 41.4726 2.04949L41.9645 2.21345L41.8825 2.78731C41.8005 3.11523 41.6366 3.6071 41.4726 3.85304C41.3086 4.18096 41.0627 4.50888 40.9807 4.59086C40.8987 4.67284 40.5708 5.16472 40.3249 5.57462C39.997 6.0665 39.2591 7.05025 38.4394 7.78807C37.7015 8.52588 36.7998 9.50964 36.5538 9.83756C36.2259 10.2475 35.898 10.5754 35.734 10.8213C35.5701 10.9853 35.0782 11.5591 34.6683 12.133C34.1764 12.7068 33.7665 13.3627 33.5206 13.6906C33.3566 14.0185 32.8647 14.5104 32.6188 14.9203C32.2909 15.3302 31.881 15.5761 31.717 15.6581C31.5531 15.7401 30.9792 15.8221 30.4053 15.8221C29.8315 15.8221 29.0937 15.9041 28.6018 15.986C28.0279 15.986 27.5361 16.068 27.4541 15.986C27.3721 15.9041 27.2081 15.8221 27.2081 15.7401C27.2901 15.7401 27.5361 15.3302 27.864 15.0843ZM20.0759 17.8716C20.4858 17.8716 20.7317 17.7896 20.8137 17.7896C20.8957 17.7896 21.0597 17.8716 21.2236 18.0355C21.4696 18.2815 21.4696 18.2815 21.2236 18.3634C21.1416 18.3634 20.8137 18.4454 20.6498 18.3634C20.4038 18.3634 20.0759 18.3634 19.9939 18.4454C19.748 18.5274 19.666 18.5274 19.5021 18.4454C19.4201 18.3634 19.3381 18.1995 19.3381 18.1175C19.4201 17.9535 19.666 17.8716 20.0759 17.8716ZM16.9607 18.4454C17.0427 18.3634 17.2886 18.2815 17.4526 18.1995C17.6165 18.1995 17.9444 18.1175 18.0264 18.1175C18.1904 18.0355 18.3543 18.0355 18.5183 18.0355C18.6003 18.0355 18.8462 18.1175 18.9282 18.1995C19.0922 18.3634 19.0922 18.4454 18.9282 18.5274C18.8462 18.6094 18.4363 18.6914 18.1904 18.7733C17.7805 18.8553 17.5345 18.8553 17.2886 18.7733C16.8787 18.6914 16.8787 18.6094 16.9607 18.4454ZM8.10688 19.0193C8.27084 18.7733 8.51678 18.7733 10.8122 18.7733C12.6977 18.7733 13.4356 18.6914 13.6815 18.6094C13.9274 18.5274 14.1734 18.4454 14.3373 18.5274C14.5013 18.6094 14.6653 18.6094 14.7472 18.6094C14.8292 18.6094 15.0751 18.5274 15.4031 18.4454C15.731 18.3634 16.0589 18.3634 16.1409 18.3634C16.2229 18.3634 16.4688 18.4454 16.4688 18.6094C16.4688 18.7733 16.4688 18.8553 16.1409 18.8553C15.8949 18.8553 15.649 18.9373 15.567 19.0193C15.485 19.1013 15.2391 19.2652 14.9932 19.2652C14.7472 19.2652 14.1734 19.4292 13.6815 19.5112C13.1076 19.5931 12.5338 19.6751 12.2878 19.6751C11.9599 19.6751 11.632 19.8391 11.55 19.9211C11.3861 20.085 10.9762 20.249 10.7302 20.331C10.4023 20.4129 9.74647 20.5769 9.17261 20.6589C8.35282 20.7409 8.27084 20.7409 8.18886 20.4949C8.18886 20.331 8.10688 20.003 8.0249 19.8391C7.94292 19.3472 8.0249 19.1013 8.10688 19.0193ZM54.3434 13.4447C54.3434 13.2807 54.4254 13.1167 54.4254 13.0348C54.4254 12.9528 54.5074 12.6249 54.5074 12.3789C54.5074 12.2969 54.5074 12.051 54.2614 11.4772C54.0155 10.8213 53.9335 10.8213 53.8515 10.5754C53.7695 10.3294 53.8515 10.2475 53.6876 9.59162C53.6056 9.2637 53.6056 9.09974 53.6056 8.93578C53.4416 8.52589 53.1957 8.27995 52.9498 8.03401C52.3759 7.37817 52.7038 7.62411 51.7201 6.39442C51.3102 5.90254 51.1462 5.73857 50.8183 5.41066C50.3264 4.91878 50.0805 4.67284 49.8345 4.4269C49.5066 4.18096 49.1787 3.77106 48.4409 3.36116C48.113 3.11523 47.867 2.95127 47.3751 2.62335C46.8013 2.21345 46.5553 2.04949 46.1454 1.88553C45.8175 1.80356 45.4896 1.6396 45.1617 1.47564C44.9977 1.39366 44.5058 1.2297 43.85 1.06574C43.2761 0.983758 42.9482 0.901776 42.3744 0.819797C41.3086 0.737817 41.3086 0.819798 40.5708 0.737818C39.833 0.655839 39.2591 0.491878 39.0132 0.409898C38.3574 0.245939 38.3574 0.163958 37.9475 0.0819784C37.4556 -1.2517e-06 37.1277 0 36.7178 0C36.3899 0 36.0619 -1.2517e-06 35.5701 0.0819784C34.9962 0.163958 34.9142 0.245941 34.5043 0.245941C34.0944 0.327921 33.8485 0.245941 33.3566 0.245941C32.3729 0.163962 32.3729 0.0819784 31.717 0.0819784C31.1432 0.0819784 30.8972 0.0819772 30.4053 0.163957C29.9135 0.245936 29.9135 0.409897 29.5855 0.491877C29.3396 0.491877 29.1757 0.655839 28.9297 0.737818C28.9297 0.737818 28.8477 0.737817 28.8477 0.819797C28.8477 0.901776 28.9297 0.983753 29.0117 0.983753C29.5036 1.31167 30.8152 1.14772 30.8152 1.14772C31.0612 1.14772 32.0449 1.06573 32.7008 1.31167C32.7828 1.39365 32.9467 1.47564 33.0287 1.55761C33.0287 1.63959 32.9467 1.72158 32.8647 1.88553C32.7828 2.04949 32.7828 2.13147 32.7008 2.54137C32.6188 2.86929 32.5368 3.11523 32.3729 3.27919C32.2909 3.44315 32.2089 3.44314 31.963 3.77106C31.635 4.017 31.4711 4.26294 31.3071 4.4269C30.9792 4.8368 31.0612 4.91878 30.8152 5.2467C30.5693 5.57462 30.3234 5.73858 30.3234 5.73858C30.1594 5.90254 29.9954 5.98451 29.9135 6.23045C29.8315 6.31243 29.8315 6.39441 29.8315 6.55837C29.7495 7.05025 29.7495 7.13223 29.6675 7.21421C29.5855 7.37817 29.5036 7.46015 29.1757 7.78807C29.1757 7.78807 28.9297 8.03401 28.5198 8.4439C28.1919 8.8538 28.1919 9.01776 27.782 9.59162C27.2901 10.2475 27.2081 10.2475 26.7163 10.9853C26.3883 11.4772 26.4703 11.4772 26.0604 12.051C25.6505 12.6249 25.4046 13.0348 25.2406 13.1987C24.9947 13.6086 24.9947 13.5266 24.2569 14.3464C23.765 14.9203 23.601 15.0843 23.3551 15.4122C22.7812 15.986 22.6173 16.068 22.4533 16.068C22.2074 16.15 22.1254 16.068 21.7155 16.232C21.3056 16.314 21.3056 16.314 21.0597 16.3959C20.7317 16.4779 20.4858 16.3959 20.0759 16.3959C19.4201 16.314 19.2561 16.314 19.0102 16.3959C18.9282 16.3959 18.8462 16.4779 18.7642 16.4779C18.6823 16.4779 18.6003 16.4779 18.3543 16.3959C18.1084 16.314 18.0264 16.314 17.9444 16.314C17.7805 16.314 17.6985 16.3959 17.6985 16.3959C17.6165 16.3959 17.3706 16.4779 16.3868 16.6419C14.9112 16.8058 15.0751 16.7239 14.3373 16.8878C14.0914 16.9698 13.5995 17.0518 12.9437 17.1338C12.6977 17.1338 12.5338 17.1338 12.4518 17.1338C12.0419 17.1338 11.8779 17.0518 11.632 16.9698C11.3861 16.9698 11.2221 16.9698 10.8942 17.0518C10.4843 17.1337 10.3203 17.1337 9.66449 17.2157C9.09063 17.2977 8.76272 17.3797 8.68074 17.2157C8.68074 17.2157 8.68074 17.1337 8.68074 17.0518C8.68074 16.8058 8.8447 16.5599 8.92667 16.4779C9.00865 16.314 9.09063 16.068 9.25459 15.6581C9.41855 15.0843 9.33657 15.0023 9.50053 14.5924C9.58251 14.3464 9.66449 14.1825 9.82845 14.0185C9.99241 13.8546 10.1564 13.8546 10.3203 13.6906C10.4843 13.5266 10.4843 13.3627 10.6482 13.0348C10.6482 13.0348 10.8122 12.6249 11.0581 12.215C11.2221 11.8871 11.3041 11.969 11.714 11.3952C12.2059 10.8213 12.2059 10.7393 12.4518 10.4934C12.6158 10.3294 12.7797 10.1655 13.1896 9.75558C13.4356 9.50964 13.6815 9.2637 14.0094 9.01776C14.5833 8.4439 14.8292 8.27995 15.0751 8.11599C15.485 7.87005 15.567 7.78807 16.0589 7.46015C16.3868 7.21421 16.4688 7.13223 16.6328 6.96827C16.9607 6.72233 17.2066 6.55837 17.6985 6.31243C18.5183 5.82055 18.9282 5.6566 19.3381 5.41066C19.83 5.08274 19.9939 4.91878 20.1579 4.75482C20.3218 4.59086 20.3218 4.26294 20.5678 4.09898C20.7317 4.017 20.8957 4.01701 21.1416 3.93503C21.3876 3.85305 21.5515 3.77107 21.8795 3.52513C22.4533 3.19721 22.6993 2.95127 22.9452 2.86929C23.5191 2.62335 23.601 2.70533 23.929 2.45939C24.0929 2.29543 24.2569 2.21345 24.5028 2.04949C24.6668 1.96751 24.8307 1.96751 24.9947 1.88553C25.8145 1.72158 25.7325 1.72157 25.8965 1.63959C26.3883 1.47563 26.6343 1.2297 26.8802 1.06574C27.1262 0.901779 27.3721 0.737819 27.2901 0.65584C27.2491 0.573858 27.1262 0.737818 26.7163 0.737818C25.8965 0.737818 25.1586 1.06574 25.1586 1.06574C23.929 1.55762 24.3389 1.31167 23.0272 1.80355C22.2894 2.04949 21.7975 2.37741 20.6498 2.86929C19.9119 3.27919 19.1741 3.52513 18.6003 3.93503C18.1084 4.18097 17.7805 4.4269 17.3706 4.59086C17.1246 4.75482 17.1246 4.75482 16.7147 5.00076C16.3868 5.2467 16.0589 5.41066 15.485 5.73858C14.9112 6.14847 14.8292 6.14847 14.5833 6.31243C14.5013 6.39441 14.1734 6.64036 13.9274 6.80431C13.4356 7.13223 13.2716 7.46015 12.6977 7.87005C11.3861 9.01776 11.55 8.93578 11.0581 9.42766C10.4843 10.0015 10.2383 10.2475 9.91043 10.6574C9.50053 11.1492 9.58251 11.2312 9.09063 11.8871C8.4348 12.6249 8.4348 12.7068 8.0249 13.2807C7.86094 13.5266 7.69698 13.7726 7.45104 14.2645C7.12312 14.8383 7.12312 14.9203 6.87718 15.2482C6.63124 15.5761 6.63124 15.5761 6.38531 15.9041C6.13937 16.314 6.13937 16.3959 5.97541 16.5599C5.89343 16.6419 5.64749 17.0518 5.40155 17.2157C4.99165 17.7076 4.33581 17.6256 3.76196 17.6256C3.10612 17.6256 2.20434 17.6256 0.974647 17.8716C0.564749 17.9535 0.23683 17.6256 0.0728708 17.7896C-0.0910885 17.9535 0.0728708 18.4454 0.0728708 18.4454C0.23683 18.7733 0.48277 19.0193 0.728709 19.1013C1.63049 19.5931 3.1881 19.4292 4.25383 19.2652C4.33581 19.2652 4.66373 19.1832 4.82769 19.3472C4.90967 19.4292 4.99165 19.5112 5.07363 19.6751C5.23759 19.9211 5.23759 20.167 5.23759 20.167C5.23759 20.331 5.23759 20.4949 5.23759 20.5769C5.23759 20.6589 5.15561 20.8228 5.07363 20.9868C4.90967 21.1508 4.74571 21.2327 4.58175 21.2327C3.67998 21.4787 3.51602 21.3967 3.10612 21.6426C2.86018 21.8066 2.94216 21.8066 2.45028 22.2985C2.04038 22.7084 1.79444 22.7903 1.79444 22.9543C1.79444 23.2002 2.12236 23.5282 2.45028 23.6101C2.7782 23.6921 2.86018 23.6101 3.67998 23.6101C4.25383 23.6101 4.17185 23.6101 4.33581 23.6101C4.82769 23.5282 4.99165 23.2822 5.56551 22.9543C5.81145 22.7903 6.05739 22.7903 6.38531 22.6264C6.63124 22.5444 7.04114 22.4624 8.18886 22.2985C9.25459 22.1345 9.50053 22.2985 9.91043 22.0525C10.0744 21.9705 10.4843 21.8066 10.7302 21.8066C11.0581 21.7246 11.632 21.6426 12.1239 21.6426C12.6158 21.5607 13.4356 21.3967 14.0094 21.3147C14.5833 21.1508 15.0751 21.1508 15.2391 21.1508C15.4031 21.2327 15.649 21.1508 15.813 21.0688C16.0589 20.9048 16.3868 20.9048 17.0427 20.9048C17.6985 20.9048 18.0264 20.9048 18.1084 20.7409C18.1904 20.6589 18.3543 20.5769 18.4363 20.5769C18.5183 20.5769 18.6003 20.6589 18.6003 20.7409C18.6003 20.8228 18.5183 20.9868 18.4363 21.0688C18.3543 21.1508 18.1084 21.4787 17.8625 21.7246C17.6985 21.7246 17.3706 22.2165 17.1246 22.5444C16.8787 22.8723 16.6328 23.2822 16.5508 23.5282C16.3868 23.7741 16.2229 24.02 15.9769 24.184C15.813 24.348 15.649 24.5939 15.567 24.7579C15.485 24.9218 15.2391 25.2497 14.9932 25.4137C14.7472 25.5777 14.5013 25.9876 14.4193 26.1515C14.3373 26.3975 14.0914 26.8074 13.9274 26.8893C13.7635 27.1353 13.4356 27.4632 13.3536 27.5452C13.1896 27.7091 12.8617 28.119 12.6158 28.365C12.2878 28.6109 12.0419 28.8568 11.9599 28.8568C11.8779 28.8568 11.714 29.0208 11.632 29.1848L11.468 29.5127L10.9762 29.0208C10.7302 28.7749 10.4843 28.5289 10.4023 28.5289C10.3203 28.5289 10.1564 28.283 10.0744 28.037C9.99241 27.7911 9.82845 27.4632 9.74647 27.3812C9.66449 27.2992 9.50053 26.9713 9.41855 26.7254C9.33657 26.3975 9.17261 26.1515 9.09063 26.0695C9.00865 25.9876 8.8447 25.7416 8.76272 25.4957C8.68074 25.2497 8.4348 24.8398 8.18886 24.6759C7.94292 24.348 7.77896 24.102 7.53302 24.102C7.36906 24.102 7.12312 24.184 6.95916 24.348C6.63124 24.5939 6.63124 24.6759 6.71322 25.4137L6.7952 26.2335L7.615 27.1353C8.10688 27.7091 8.59876 28.283 8.76272 28.5289C8.92667 28.8568 9.09063 29.1848 9.17261 29.3487C9.25459 29.5127 10.0744 30.4145 10.1564 30.5784C10.2383 30.7424 10.1564 30.9883 9.91043 31.2343C9.66449 31.4802 9.58251 31.8081 9.58251 32.054C9.58251 32.3 9.66449 32.6279 9.99241 32.9558C10.2383 33.2837 10.5663 33.4477 10.6482 33.4477C10.8122 33.4477 11.3041 33.2837 11.55 33.1198L12.2059 32.7919L13.2716 33.1198C13.9274 33.2837 14.4193 33.5297 14.5833 33.6117C14.7472 33.6936 14.9932 33.7756 15.1571 33.7756C15.3211 33.7756 15.649 33.6936 15.813 33.5297C16.0589 33.2837 16.0589 33.2837 15.9769 32.8738C15.8949 32.5459 15.649 32.218 15.485 32.136C15.3211 32.054 14.9112 31.8081 14.7472 31.7261C14.5013 31.6441 14.1734 31.3982 14.0914 31.2343C13.9274 31.0703 13.8455 30.7424 13.8455 30.5784C13.8455 30.4145 14.0094 30.0865 14.0914 29.9226C14.2554 29.6766 14.5013 29.3487 14.6653 29.2667C14.8292 29.1848 14.9932 28.8568 14.9932 28.7749C14.9932 28.6929 15.2391 28.365 15.649 28.119C15.9769 27.7911 16.3868 27.2992 16.5508 26.8893C16.7967 26.4794 17.2066 26.0695 17.6165 25.6596C18.0264 25.3317 18.7642 24.6759 19.2561 24.02C19.83 23.3642 20.4858 22.7084 20.8137 22.2985C21.1416 21.9705 21.6335 21.5607 21.8795 21.4787C22.2074 21.3147 22.4533 20.9868 22.6173 20.7409C22.7812 20.4129 23.1092 20.085 23.2731 20.085C23.4371 20.003 23.847 19.9211 24.0929 20.003C24.4208 20.003 24.8307 20.085 25.0767 20.085C25.3226 20.085 25.9784 20.085 26.6343 20.085C27.2901 20.085 27.7 20.085 27.782 20.167C27.782 20.249 27.782 20.4129 27.7 20.5769C27.618 20.7409 27.3721 20.9868 27.2081 21.2327C27.0442 21.3967 26.4703 21.9705 25.8965 22.6264C25.3226 23.2822 24.8307 23.7741 24.8307 23.8561C24.8307 23.9381 24.5028 24.266 24.1749 24.5939C23.765 25.0038 23.3551 25.4957 23.0272 25.8236C22.6993 26.1515 22.0434 26.8893 21.3876 27.6271C20.7317 28.283 20.2399 28.9388 20.2399 29.0208C20.2399 29.1848 20.0759 29.4307 19.9119 29.6766C19.666 29.9226 19.3381 30.3325 19.1741 30.5784C18.9282 30.8244 18.6003 31.2343 18.5183 31.4802C18.3543 31.7261 18.0264 32.136 17.8625 32.382C17.5345 32.6279 17.2886 32.9558 17.2886 33.0378C17.2886 33.2018 17.0836 33.2428 16.9197 33.5297C16.7147 33.8166 16.6509 33.9491 16.5508 34.3495C16.4688 34.6774 16.4688 34.8823 16.6328 35.2513C16.8787 35.5382 16.9607 35.4972 17.2886 35.6202C17.5084 35.7026 17.5755 35.5792 17.7805 35.6612C17.9444 35.8251 18.2724 35.9891 18.4363 36.0711C18.7642 36.153 19.0102 36.153 19.0922 36.0711C19.2561 35.9891 19.584 35.9891 19.9119 35.9891C20.3218 36.0711 20.5678 35.9891 20.8957 35.9071C21.0881 35.859 20.7727 35.2922 21.2236 35.3332C21.2236 35.3332 21.3056 35.3332 21.3876 35.4152C21.5515 35.5792 21.6335 35.6612 21.7155 35.7431C22.0434 36.153 22.9452 36.399 22.9452 36.399C24.6668 36.9728 26.3064 36.9728 26.4703 36.9728C26.7163 36.9728 26.7982 36.9728 26.9622 36.9728C27.1262 36.9728 27.2081 36.9728 27.2901 36.9728C27.864 36.9728 28.4378 36.399 28.4378 36.399C28.8477 36.0711 28.6838 36.0711 29.0937 35.7431C29.5036 35.4152 29.7495 35.2513 30.4053 34.9233C30.4873 34.8414 30.6513 34.7594 30.8972 34.6774C31.2251 34.5134 31.3891 34.4315 31.5531 34.4315C31.963 34.3495 32.1269 34.2675 32.2909 34.2675C32.3729 34.2675 32.4548 34.2675 32.6188 34.1855C32.7008 34.1035 32.7008 34.0216 32.7008 33.9396C32.7828 33.7756 32.9467 33.6117 33.1927 33.4477C33.4386 33.2018 33.7665 33.1198 34.0125 32.9558C34.3404 32.7919 34.3404 32.8738 34.6683 32.7099C35.0782 32.5459 35.3241 32.382 35.3241 32.382C35.4061 32.382 35.4881 32.3 35.898 32.054C36.2259 31.8901 36.4718 31.7261 36.5538 31.6441C37.6196 30.9883 37.5376 30.9883 37.7015 30.9883C38.1114 30.8244 38.1114 30.9063 38.6033 30.6604C38.6853 30.6604 38.8493 30.5784 39.2591 30.3325C39.833 30.0865 39.915 30.0046 40.4069 29.6766C41.0627 29.3487 41.3086 29.1848 41.6366 29.0208C41.8825 28.9388 42.0465 28.9388 42.2924 28.7749C42.4564 28.6929 42.6203 28.6109 42.9482 28.5289C43.2762 28.365 43.4401 28.365 43.6041 28.283C43.768 28.201 44.2599 27.9551 44.7518 27.6271C45.0797 27.3812 45.3256 27.1353 45.8995 26.6434C46.4734 26.0695 46.4734 26.0695 46.6373 25.9056C47.0472 25.5777 47.2112 25.4957 47.5391 25.1678C47.785 24.8398 47.949 24.5939 47.949 24.5119C48.1129 24.184 48.113 23.9381 48.1949 23.8561C48.2769 23.4462 48.4409 23.4462 49.1787 22.7084C49.7525 22.1345 49.9985 21.8886 50.2444 21.3967C50.5723 20.9048 50.4904 20.9048 50.8183 20.4949C51.1462 20.085 51.2282 20.003 51.4741 19.8391C51.6381 19.5931 51.802 19.5112 51.802 19.5112C51.884 19.4292 51.884 19.3472 51.966 19.1832C52.6218 18.1175 52.3759 17.4617 52.8678 17.1338C53.1137 16.9698 53.1137 17.1337 53.6876 16.8878C53.8515 16.8058 54.1795 16.7239 54.5074 16.4779C54.9173 16.232 54.9992 16.068 55.3272 15.986C55.4911 15.986 55.5731 15.986 55.7371 15.986C55.901 15.9041 55.901 15.9041 56.147 15.7401C56.3929 15.5761 56.3929 15.6581 56.5569 15.4942C56.8028 15.3302 56.8028 15.3302 56.8848 15.2482C57.1307 15.1662 57.2127 15.2482 57.3767 15.1662C57.5406 15.0843 57.5406 14.9203 57.7046 14.8383C57.7866 14.7563 57.9505 14.7563 58.2784 14.7563C58.6063 14.7563 58.6883 14.7563 58.7703 14.6744C58.8523 14.5924 58.8523 14.4284 58.9343 14.4284C59.0163 14.4284 59.0162 14.4284 59.1802 14.5104C59.3442 14.5924 59.4261 14.5924 59.5081 14.5924C59.5901 14.5104 59.5491 14.4284 59.713 14.3874C59.836 14.3874 60 14.3464 60 14.2645C60 14.2645 59.918 14.1825 59.4261 14.1825C59.0982 14.1825 59.0162 14.2645 58.8523 14.2645C58.5244 14.2645 58.4424 14.2645 58.1145 14.2645C57.5406 14.2645 57.5406 14.4284 57.0487 14.4284C56.7208 14.4284 56.7208 14.3464 56.3109 14.2645C56.147 14.2645 55.901 14.2645 55.5731 14.3464C55.2452 14.4284 55.1632 14.5924 54.7533 14.5924C54.5074 14.6744 54.3434 14.6744 54.2614 14.5924C54.0975 14.5104 54.0975 14.2645 54.3434 13.4447ZM29.0937 33.4477C28.7658 33.6936 28.0279 34.0216 27.3721 34.1855C26.3064 34.5954 26.2244 34.5954 25.4866 34.5134C24.9947 34.4315 24.4208 34.3495 24.1749 34.3495C23.847 34.3495 23.1911 34.2675 22.5353 34.2675C21.5515 34.2675 21.4696 34.1855 21.3056 33.9396C21.2236 33.7756 20.7317 33.4477 20.3218 33.2837C19.83 33.0378 19.5021 32.7919 19.5021 32.7919C19.5021 32.7099 19.584 32.6279 19.584 32.5459C19.666 32.4639 19.9119 32.218 20.2399 31.9721C20.5678 31.7261 21.0597 31.2343 21.3876 30.8244C21.7155 30.4145 22.1254 29.9226 22.3713 29.6766C22.6173 29.4307 22.7812 29.1848 22.7812 29.1028C22.7812 29.0208 23.3551 28.4469 24.0109 27.7091C24.6668 27.0533 25.3226 26.4794 25.4046 26.4794C25.4866 26.4794 25.5685 26.3975 25.5685 26.3155C25.5685 26.2335 25.7325 26.0695 25.8965 25.9876C26.0604 25.9056 26.3883 25.6596 26.5523 25.4137C26.7982 25.1678 26.9622 24.9218 26.9622 24.9218C26.9622 24.8398 27.1262 24.5939 27.2901 24.348C27.4541 24.102 27.782 23.7741 27.946 23.6921C28.1099 23.6101 28.2739 23.4462 28.2739 23.3642C28.2739 23.2822 28.4378 23.1183 28.6018 22.9543C28.7658 22.8723 29.1757 22.3804 29.3396 22.0525C29.5856 21.6426 30.1594 20.9048 30.7333 20.331L31.635 19.3472L33.4386 19.2652C34.3404 19.2652 35.734 19.1013 36.3899 19.0193C37.0457 18.9373 37.7015 18.7733 37.7835 18.6914C37.8655 18.6094 38.6033 18.5274 39.4231 18.5274C40.1609 18.5274 41.0627 18.4454 41.3086 18.3634C41.8005 18.2815 41.9645 18.2815 42.7023 18.5274L43.5221 18.8553L44.1779 18.5274C44.3419 18.4454 44.5058 18.3634 44.6698 18.3634C45.4896 18.1175 45.8175 18.4454 46.6373 18.2815C47.0472 18.1995 46.9652 18.1175 47.785 17.9535C48.6868 17.7076 48.7688 17.7896 48.8508 17.8716C49.0147 18.0355 48.7688 18.5274 48.5229 19.0193C48.2769 19.5112 48.1949 19.6751 47.867 20.085C47.5391 20.4949 47.2932 20.9048 47.2932 21.1508C47.2112 21.4787 47.0472 21.7246 46.6373 21.9705C46.3094 22.2165 45.9815 22.6264 45.9815 22.7903C45.8995 23.0363 45.5716 23.4462 45.3256 23.6921C44.9977 23.9381 44.7518 24.266 44.7518 24.348C44.7518 24.4299 44.4239 24.6759 44.096 24.9218C43.6861 25.1678 43.3581 25.4137 43.2762 25.4957C43.1942 25.5777 42.9482 25.8236 42.7023 25.9876C42.4564 26.1515 42.0465 26.3155 41.9645 26.3155C41.7185 26.3155 41.5546 26.4794 41.3906 26.8074C41.2267 27.0533 40.9807 27.2992 40.8168 27.3812C40.6528 27.4632 40.2429 27.5452 40.0789 27.5452C39.669 27.5452 39.5051 27.6271 39.0952 28.037C38.7673 28.365 38.4394 28.5289 38.4394 28.5289C38.2754 28.5289 37.9475 28.7749 37.7015 29.0208C37.3736 29.2667 37.0457 29.5127 37.0457 29.5127C36.9637 29.5127 36.6358 29.6766 36.2259 29.8406C35.816 30.0046 35.4061 30.2505 35.1602 30.3325C34.9142 30.4145 34.6683 30.4964 34.5863 30.4964C34.4223 30.4964 34.1764 30.6604 33.9305 30.8244C33.6845 30.9883 33.1927 31.3982 32.7008 31.5622C32.2089 31.8081 31.635 32.136 31.3891 32.218C31.1432 32.3 30.7333 32.5459 30.4873 32.7099C30.1594 32.9558 29.8315 33.1198 29.8315 33.1198C29.8315 33.1198 29.4216 33.2018 29.0937 33.4477Z" fill="white"/>
</svg>
