<svg width="61" height="110" viewBox="0 0 61 110" fill="none" xmlns="http://www.w3.org/2000/svg">
<path fill-rule="evenodd" clip-rule="evenodd" d="M17.2131 28.2813V28.2813V28.2814C17.2398 32.0795 17.2664 35.8777 17.1341 39.6705C17.0472 42.1604 16.3001 44.9836 13.2901 45.1761C9.59056 45.4127 8.58643 42.4533 8.27822 39.4074C8.14468 38.0868 8.10947 36.7566 8.07426 35.4261V35.426C8.04401 34.2832 8.01376 33.1402 7.92118 32.0028C7.69503 29.2277 7.44256 26.4547 7.19008 23.6817C6.8831 20.3099 6.57611 16.9381 6.31643 13.5625C6.0486 11.5267 6.0848 9.46244 6.42382 7.43729L6.48677 7.16298C7.19751 4.06043 8.0487 0.344815 12.2385 0.78953C15.7716 1.16515 15.9952 4.6285 16.1509 7.56931C16.3498 11.3264 16.5351 15.0842 16.7204 18.842L16.7205 18.8442C16.799 20.436 16.8775 22.0279 16.957 23.6197L17.1913 23.6169C17.1913 25.1714 17.2022 26.7263 17.2131 28.2813ZM60.6523 80.2198L60.6521 80.2205L60.6521 80.2206C60.3069 82.1651 59.8336 84.8316 59.2218 87.4661C54.6 107.376 40.7025 114.411 22.1622 106.051C12.6909 101.672 5.27042 93.8122 1.44213 84.1051C0.46167 81.3995 -0.0131116 78.5368 0.0414553 75.6596L0.0383414 75.5536C-0.0436129 72.7701 -0.147666 69.236 3.43506 68.5828C6.98115 67.9348 8.26701 70.8951 8.95317 73.8973C9.27142 75.9277 9.75447 77.9288 10.3975 79.8807C11.9912 84.3702 14.6516 88.4053 18.1498 91.639C21.6481 94.8728 25.8796 97.2083 30.4803 98.4447C40.3143 101.061 46.4665 97.5884 49.1502 87.6897C50.0546 84.3595 50.5326 80.9159 51.0109 77.47C51.2702 75.6017 51.5297 73.7326 51.8572 71.8806C51.8876 71.7089 51.9175 71.5343 51.9478 71.3578C52.4155 68.6293 52.9608 65.4486 56.3665 65.4779C60.6194 65.5143 60.7885 69.0575 60.9406 72.2441C60.9498 72.4363 60.9589 72.6272 60.9688 72.816C61.0091 73.5899 61.0027 74.3662 60.9923 75.6128V75.6129C60.9861 76.3513 60.9786 77.2548 60.9786 78.4205C60.8865 78.9005 60.7778 79.5123 60.6523 80.2198ZM40.0686 21.1886C40.0783 22.6308 40.088 24.0731 40.088 25.515H40.5422C40.5422 26.9725 40.532 28.4303 40.5219 29.8881C40.4978 33.3538 40.4736 36.8194 40.5859 40.2809C40.6807 43.2106 41.3097 46.5368 44.8102 46.8446C48.6566 47.1825 49.1931 43.6797 49.4385 40.8504C49.9914 30.6047 49.7554 20.3316 48.7329 10.122C48.5576 7.50937 47.2518 5.18265 44.1836 5.45182C41.2218 5.71122 40.2177 8.18299 40.1345 10.7579C40.0218 14.2318 40.0452 17.7102 40.0686 21.1886Z" fill="black"/>
</svg>
